<?xml version="1.0" encoding="UTF-8"?>
<svg width="203px" height="151px" viewBox="0 0 203 151" version="1.1" xmlns="http://www.w3.org/2000/svg" xmlns:xlink="http://www.w3.org/1999/xlink">
    <!-- Generator: Sketch 58 (84663) - https://sketch.com -->
    <title>Masters Page - React - Sprite</title>
    <desc>Created with Sketch.</desc>
    <g id="Masters-Page---React---Sprite" stroke="none" stroke-width="1" fill="none" fill-rule="evenodd">
        <path d="M71.3503881,26.5268315 C68.2070057,26.5268315 65.6845384,29.1222563 65.6845384,32.2682258 C65.6845384,35.4535199 68.2458129,38.0096201 71.3503881,38.0096201 C74.4937704,38.0096201 77.0162377,35.4141953 77.0162377,32.2682258 C77.0162377,29.1222563 74.4937704,26.5268315 71.3503881,26.5268315 Z M71.7772672,33.7625613 L70.4966299,35.0602737 L69.2159926,33.7625613 L67.9741626,32.5041735 L69.2547998,31.2064611 L70.4966299,32.4648489 L73.4459763,29.4761779 L74.7266136,30.7738903 L71.7772672,33.7625613 Z M82.6820874,30.6559164 C82.177594,30.184021 81.983558,29.4368533 82.2552083,28.8076594 L82.4880515,28.2177901 C82.8761234,27.3133238 82.3716299,26.2908838 81.4402574,26.0156114 L80.8193423,25.858313 C80.1596201,25.6616899 79.6939338,25.0718206 79.6551266,24.3639774 L79.6551266,23.6954589 C79.6163194,22.7123435 78.7237541,22.0045003 77.7923815,22.1617988 L77.1714665,22.2797726 C76.4729371,22.3977465 75.8132149,22.0831496 75.5027574,21.4539557 L75.1922998,20.903411 C74.7266136,20.0382694 73.6400123,19.8023217 72.8638685,20.3528663 L72.359375,20.7067879 C71.8160743,21.1000341 71.0399306,21.1000341 70.4966299,20.7067879 L69.9921364,20.3135417 C69.2159926,19.7236724 68.0905842,19.9989448 67.6248979,20.8640864 L67.3144404,21.414631 C66.9651757,22.0438249 66.3054534,22.3584219 65.606924,22.240448 L64.986009,22.1224742 C64.0158292,21.9651757 63.1620711,22.6730188 63.0844567,23.6561343 L63.0456495,24.2853282 C63.0068423,24.9931713 62.541156,25.5830406 61.8814338,25.7796637 L61.2605188,25.9762868 C60.3291462,26.2515591 59.8246528,27.2739992 60.2127247,28.1784655 L60.4455678,28.7683347 C60.7172181,29.3975286 60.5231822,30.1446964 60.0186887,30.6165918 L59.5530025,31.0491626 C58.8156658,31.6783565 58.8156658,32.8580951 59.5530025,33.487289 L60.0186887,33.9198598 C60.5231822,34.3917552 60.7172181,35.138923 60.4455678,35.7681169 L60.2127247,36.3579862 C59.8246528,37.2624524 60.3291462,38.2848925 61.2605188,38.5601648 L61.8814338,38.7174633 C62.541156,38.9140864 63.0068423,39.5039557 63.0456495,40.2117988 L63.0844567,40.8409927 C63.1232639,41.8241082 64.0158292,42.5319513 64.9472018,42.3746528 L65.5681168,42.256679 C66.2666462,42.1387051 66.9263685,42.4533021 67.236826,43.082496 L67.5472835,43.6330406 C68.0129698,44.4981822 69.0995711,44.7341299 69.8757149,44.1835853 L70.3802083,43.8296637 C70.923509,43.4364175 71.6996528,43.4364175 72.2429534,43.8296637 L72.7474469,44.2229099 C73.5235907,44.8127792 74.6489992,44.5375069 75.1146855,43.6723652 L75.425143,43.1218206 C75.7744077,42.4926267 76.4341299,42.1780297 77.1326593,42.2960036 L77.7535743,42.4139774 C78.7237541,42.5712759 79.5775123,41.8634328 79.6551266,40.8803173 L79.6939338,40.2511234 C79.732741,39.5432803 80.1984273,38.953411 80.8581495,38.7567879 L81.4790645,38.5994894 C82.4104371,38.3242171 82.9149306,37.301777 82.5268587,36.3973108 L82.2940155,35.8074415 C82.0223652,35.1782476 82.2164011,34.4310798 82.7208946,33.9591844 L83.1865809,33.5266136 C83.9239175,32.8974197 83.9239175,31.7176811 83.1865809,31.0884872 L82.6820874,30.6559164 Z M71.3503881,40.2511234 C67.0039828,40.2511234 63.5113358,36.6725831 63.5113358,32.3075504 C63.5113358,27.9031931 67.04279,24.3639774 71.3503881,24.3639774 C75.6967933,24.3639774 79.1894404,27.9425177 79.1894404,32.3075504 C79.1894404,36.6725831 75.6967933,40.2511234 71.3503881,40.2511234 Z M59.1649306,54.0933892 L62.9680351,44.4588576 C63.4725286,44.6948053 64.0546364,44.8521038 64.6367443,44.8521038 C64.8695874,44.8521038 65.1024306,44.8127792 65.3352737,44.7734546 L65.4128881,44.7734546 L65.4516953,44.8521038 C66.1114175,46.1104916 67.4696691,46.896984 68.9443423,46.896984 C69.3324142,46.896984 69.7592933,46.8183347 70.108558,46.7003609 L66.1114175,56.8854371 C65.9949959,57.2000341 65.5681168,57.2393587 65.4128881,56.9247618 L63.5113358,53.5428445 C63.4337214,53.4248707 63.3172998,53.3855461 63.2008783,53.4248707 L59.6306168,54.5652846 C59.3201593,54.6832585 59.048509,54.3686615 59.1649306,54.0933892 Z M76.5893587,57.003411 L72.5534109,46.7790101 C72.9414828,46.896984 73.3295547,46.9756332 73.7176266,46.9756332 C75.1922998,46.9756332 76.5117443,46.1891408 77.2102737,44.8914284 L77.2490809,44.8127792 L77.3266953,44.8127792 C77.5595384,44.8521038 77.7923815,44.8914284 78.0252247,44.8914284 C78.6461397,44.8914284 79.1894404,44.7341299 79.732741,44.4981822 L83.5358456,54.2113631 C83.6522672,54.52596 83.3806168,54.840557 83.0701593,54.7225831 L79.4998979,53.5821692 C79.3834763,53.5428445 79.2670547,53.5821692 79.1894404,53.700143 L77.2878881,57.0820602 C77.1326593,57.3180079 76.7057802,57.2786833 76.5893587,57.003411 Z" id="Shape" fill="#1179EF" fill-rule="nonzero"></path>
        <path d="M29.3862949,24.981003 C26.9973243,24.981003 25.0802492,26.9617219 25.0802492,29.3625934 C25.0802492,31.7934757 27.0268178,33.7441838 29.3862949,33.7441838 C31.7752655,33.7441838 33.6923407,31.7634648 33.6923407,29.3625934 C33.6923407,26.9617219 31.7752655,24.981003 29.3862949,24.981003 Z M29.710723,30.5030073 L28.7374387,31.4933668 L27.7641544,30.5030073 L26.8203636,29.5426587 L27.7936479,28.5522993 L28.7374387,29.5126478 L30.978942,27.23182 L31.9522263,28.2221794 L29.710723,30.5030073 Z M37.9983864,28.1321468 C37.6149714,27.772016 37.4675041,27.2018091 37.6739583,26.7216348 L37.8509191,26.2714714 C38.1458538,25.5812208 37.7624387,24.8009376 37.0545956,24.5908614 L36.5827002,24.4708178 C36.0813113,24.3207633 35.7273897,23.8705999 35.6978962,23.3304038 L35.6978962,22.8202186 C35.6684028,22.0699463 34.9900531,21.5297502 34.28221,21.6497938 L33.8103145,21.7398265 C33.2794322,21.8298592 32.7780433,21.589772 32.5420956,21.1095977 L32.3061479,20.6894452 C31.9522263,20.0292056 31.1264093,19.8491402 30.53654,20.2692927 L30.153125,20.5393908 C29.7402165,20.8394997 29.1503472,20.8394997 28.7374387,20.5393908 L28.3540237,20.2392818 C27.7641544,19.7891184 26.908844,19.9991947 26.5549224,20.6594343 L26.3189747,21.0795868 C26.0535335,21.5597611 25.5521446,21.7998483 25.0212623,21.7098156 L24.5493668,21.6197829 C23.8120302,21.4997393 23.163174,22.0399354 23.1041871,22.7902078 L23.0746936,23.270382 C23.0452002,23.8105781 22.6912786,24.2607415 22.1898897,24.410796 L21.7179943,24.5608505 C21.0101511,24.7709267 20.6267361,25.5512099 20.9216708,26.2414605 L21.0986315,26.6916239 C21.3050858,27.1717982 21.1576185,27.7420051 20.7742034,28.1021359 L20.4202819,28.4322557 C19.859906,28.91243 19.859906,29.8127568 20.4202819,30.2929311 L20.7742034,30.6230509 C21.1576185,30.9831816 21.3050858,31.5533886 21.0986315,32.0335629 L20.9216708,32.4837263 C20.6267361,33.1739768 21.0101511,33.95426 21.7179943,34.1643363 L22.1898897,34.2843799 C22.6912786,34.4344343 23.0452002,34.8845977 23.0746936,35.4247938 L23.1041871,35.9049681 C23.1336806,36.6552404 23.8120302,37.1954365 24.5198734,37.0753929 L24.9917688,36.9853603 C25.5226511,36.8953276 26.02404,37.1354147 26.2599877,37.615589 L26.4959355,38.0357415 C26.849857,38.6959812 27.675674,38.8760465 28.2655433,38.455894 L28.6489583,38.185796 C29.0618668,37.8856871 29.6517361,37.8856871 30.0646446,38.185796 L30.4480596,38.4859049 C31.0379289,38.9360683 31.8932394,38.7259921 32.2471609,38.0657524 L32.4831087,37.6455999 C32.7485498,37.1654256 33.2499387,36.9253385 33.7808211,37.0153712 L34.2527165,37.1054038 C34.9900531,37.2254474 35.6389093,36.6852513 35.6978962,35.934979 L35.7273897,35.4548047 C35.7568832,34.9146086 36.1108047,34.4644452 36.6121936,34.3143908 L37.0840891,34.1943472 C37.7919322,33.9842709 38.1753472,33.2039877 37.8804126,32.5137372 L37.7034518,32.0635738 C37.4969975,31.5833995 37.6444649,31.0131925 38.0278799,30.6530618 L38.3818015,30.322942 C38.9421773,29.8427677 38.9421773,28.9424409 38.3818015,28.4622666 L37.9983864,28.1321468 Z M29.3862949,35.4548047 C26.083027,35.4548047 23.4286152,32.7238134 23.4286152,29.3926043 C23.4286152,26.0313842 26.1125204,23.3304038 29.3862949,23.3304038 C32.6895629,23.3304038 35.3439747,26.0613951 35.3439747,29.3926043 C35.3439747,32.7238134 32.6895629,35.4548047 29.3862949,35.4548047 Z M20.1253472,46.0186391 L23.0157067,38.6659703 C23.3991217,38.8460356 23.8415237,38.9660792 24.2839257,38.9660792 C24.4608864,38.9660792 24.6378472,38.9360683 24.814808,38.9060574 L24.8737949,38.9060574 L24.9032884,38.9660792 C25.4046773,39.9264278 26.4369485,40.5266457 27.5577002,40.5266457 C27.8526348,40.5266457 28.1770629,40.4666239 28.4425041,40.3765912 L25.4046773,48.1494125 C25.3161969,48.3894997 24.9917688,48.4195106 24.8737949,48.1794234 L23.4286152,45.5984866 C23.3696283,45.5084539 23.2811479,45.4784431 23.1926675,45.5084539 L20.4792688,46.3787698 C20.2433211,46.4688025 20.0368668,46.2287154 20.1253472,46.0186391 Z M33.3679126,48.2394452 L30.3005923,40.436613 C30.595527,40.5266457 30.8904616,40.5866675 31.1853962,40.5866675 C32.3061479,40.5866675 33.3089257,39.9864496 33.839808,38.9960901 L33.8693015,38.9360683 L33.9282884,38.9360683 C34.1052492,38.9660792 34.28221,38.9960901 34.4591708,38.9960901 C34.9310662,38.9960901 35.3439747,38.8760465 35.7568832,38.6959812 L38.6472426,46.1086718 C38.735723,46.348759 38.5292688,46.5888461 38.2933211,46.4988134 L35.5799224,45.6284975 C35.491442,45.5984866 35.4029616,45.6284975 35.3439747,45.7185302 L33.8987949,48.299467 C33.7808211,48.4795324 33.456393,48.4495215 33.3679126,48.2394452 Z" id="Shape" fill="#1179EF" fill-rule="nonzero"></path>
        <g id="Group-11" transform="translate(138.500000, 27.000000) scale(-1, 1) translate(-138.500000, -27.000000) translate(99.000000, 20.000000)" fill="#D2D6DE">
            <polygon id="Path" points="71.75 11.0335885 67.7842819 13.2257836 68.5416667 8.58263996 65.3333333 5.29434739 69.767141 4.61692186 71.75 0.392450245 73.732859 4.61692186 78.1666667 5.29434739 74.9583333 8.58263996 75.7157181 13.2257836"></polygon>
            <polygon id="Path" points="55.4166667 11.0335885 51.4509486 13.2257836 52.2083333 8.58263996 49 5.29434739 53.4338076 4.61692186 55.4166667 0.392450245 57.3995257 4.61692186 61.8333333 5.29434739 58.625 8.58263996 59.3823848 13.2257836"></polygon>
            <polygon id="Path" points="39.0833333 10.6411383 35.1176152 12.8333333 35.875 8.19018971 32.6666667 4.90189714 37.1004743 4.22447162 39.0833333 0 41.0661924 4.22447162 45.5 4.90189714 42.2916667 8.19018971 43.0490514 12.8333333"></polygon>
            <polygon id="Path-Copy" points="22.75 10.6411383 18.7842819 12.8333333 19.5416667 8.19018971 16.3333333 4.90189714 20.767141 4.22447162 22.75 0 24.732859 4.22447162 29.1666667 4.90189714 25.9583333 8.19018971 26.7157181 12.8333333"></polygon>
            <polygon id="Path-Copy-2" points="6.41666667 10.6411383 2.45094857 12.8333333 3.20833333 8.19018971 0 4.90189714 4.43380762 4.22447162 6.41666667 0 8.39952571 4.22447162 12.8333333 4.90189714 9.625 8.19018971 10.3823848 12.8333333"></polygon>
        </g>
        <g id="Group-11-Copy" transform="translate(138.500000, 51.000000) scale(-1, 1) translate(-138.500000, -51.000000) translate(99.000000, 44.000000)" fill="#F1B006">
            <polygon id="Path" points="71.75 11.0335885 67.7842819 13.2257836 68.5416667 8.58263996 65.3333333 5.29434739 69.767141 4.61692186 71.75 0.392450245 73.732859 4.61692186 78.1666667 5.29434739 74.9583333 8.58263996 75.7157181 13.2257836"></polygon>
            <polygon id="Path" points="55.4166667 11.0335885 51.4509486 13.2257836 52.2083333 8.58263996 49 5.29434739 53.4338076 4.61692186 55.4166667 0.392450245 57.3995257 4.61692186 61.8333333 5.29434739 58.625 8.58263996 59.3823848 13.2257836"></polygon>
            <polygon id="Path" points="39.0833333 10.6411383 35.1176152 12.8333333 35.875 8.19018971 32.6666667 4.90189714 37.1004743 4.22447162 39.0833333 0 41.0661924 4.22447162 45.5 4.90189714 42.2916667 8.19018971 43.0490514 12.8333333"></polygon>
            <polygon id="Path-Copy" points="22.75 10.6411383 18.7842819 12.8333333 19.5416667 8.19018971 16.3333333 4.90189714 20.767141 4.22447162 22.75 0 24.732859 4.22447162 29.1666667 4.90189714 25.9583333 8.19018971 26.7157181 12.8333333"></polygon>
            <polygon id="Path-Copy-2" points="6.41666667 10.6411383 2.45094857 12.8333333 3.20833333 8.19018971 0 4.90189714 4.43380762 4.22447162 6.41666667 0 8.39952571 4.22447162 12.8333333 4.90189714 9.625 8.19018971 10.3823848 12.8333333"></polygon>
        </g>
        <g id="Group-8" transform="translate(20.000000, 78.000000)" fill-rule="nonzero">
            <g id="Group-4" transform="translate(0.000000, 0.000000)" fill="#FFFFFF">
                <g id="Group-3">
                    <path d="M3.40440391,33.1941176 C3.40440391,33.1941176 3.59499214,32.94 3.81734508,32.5588235 C3.9126392,32.3682353 4.03969803,32.1458824 4.13499214,31.8917647 C4.23028626,31.6376471 4.32558038,31.3517647 4.35734508,31.0658824 C4.38910979,30.9070588 4.38910979,30.78 4.38910979,30.6529412 C4.38910979,30.5258824 4.38910979,30.3670588 4.38910979,30.24 C4.35734508,29.9858824 4.32558038,29.7317647 4.26205097,29.5411765 C4.19852155,29.3505882 4.16675685,29.16 4.13499214,29.0329412 C4.10322744,28.9058824 4.07146273,28.8423529 4.07146273,28.8423529 C4.07146273,28.8423529 3.81734508,29.0329412 3.56322744,29.3823529 C3.53146273,29.4141176 3.49969803,29.4776471 3.46793332,29.5094118 C3.43616861,29.5729412 3.40440391,29.6047059 3.3726392,29.6682353 C3.30910979,29.7635294 3.24558038,29.8905882 3.18205097,30.0176471 C3.05499214,30.2717647 2.95969803,30.5576471 2.92793332,30.8752941 L3.40440391,33.1941176 Z" id="Path"></path>
                    <path d="M3.15028626,33.2576471 C3.15028626,33.2576471 2.73734508,33.0988235 2.16558038,32.7176471 C2.03852155,32.6223529 1.87969803,32.5270588 1.7208745,32.4 C1.56205097,32.2729412 1.43499214,32.1458824 1.27616861,31.9870588 C1.11734508,31.8282353 0.990286261,31.6694118 0.863227437,31.4788235 C0.799698025,31.3835294 0.736168613,31.2882353 0.672639202,31.1929412 C0.60910979,31.0976471 0.545580378,30.9705882 0.513815672,30.8752941 C0.06910979,29.9858824 -0.0261843277,29.0329412 0.0055803782,28.3023529 C0.0373450841,27.5717647 0.164403908,27.0952941 0.164403908,27.0952941 C0.164403908,27.0952941 0.545580378,27.3811765 1.02205097,27.8576471 C1.27616861,28.1117647 1.49852155,28.3976471 1.78440391,28.7152941 C1.91146273,28.8741176 2.03852155,29.0647059 2.16558038,29.2552941 C2.2926392,29.4458824 2.38793332,29.6364706 2.48322744,29.8588235 L3.15028626,33.2576471 Z" id="Path"></path>
                    <path d="M5.65969803,38.9435294 C5.65969803,38.9435294 5.69146273,38.88 5.72322744,38.7529412 C5.78675685,38.6258824 5.85028626,38.4352941 5.88205097,38.2447059 C5.94558038,38.0223529 6.00910979,37.7682353 6.00910979,37.5141176 C6.00910979,37.4505882 6.00910979,37.3870588 6.0408745,37.3235294 C6.0408745,37.26 6.0408745,37.1964706 6.0408745,37.1011765 C6.0408745,36.9423529 6.0408745,36.8152941 6.0408745,36.6564706 C5.97734508,36.0847059 5.78675685,35.5447059 5.56440391,35.1952941 C5.5326392,35.1635294 5.5008745,35.1 5.5008745,35.0682353 C5.46910979,35.0364706 5.46910979,34.9729412 5.43734508,34.9411765 C5.40558038,34.8776471 5.34205097,34.8141176 5.31028626,34.7505882 C5.24675685,34.6552941 5.18322744,34.5917647 5.18322744,34.5917647 C5.18322744,34.5917647 4.9926392,34.8458824 4.83381567,35.2588235 C4.73852155,35.4494118 4.67499214,35.7035294 4.61146273,35.9894118 C4.57969803,36.1164706 4.57969803,36.2752941 4.54793332,36.4023529 C4.54793332,36.5611765 4.54793332,36.72 4.54793332,36.8470588 L5.65969803,38.9435294 Z" id="Path"></path>
                    <path d="M5.43734508,39.0705882 C5.43734508,39.0705882 5.40558038,39.0705882 5.34205097,39.0705882 C5.27852155,39.0705882 5.21499214,39.0388235 5.11969803,39.0388235 C4.92910979,39.0070588 4.64322744,38.9435294 4.32558038,38.8164706 C3.69028626,38.5941176 2.89616861,38.1494118 2.22910979,37.4188235 C2.07028626,37.2282353 1.94322744,37.0376471 1.81616861,36.8152941 C1.7526392,36.72 1.68910979,36.6247059 1.62558038,36.4976471 C1.56205097,36.4023529 1.53028626,36.2752941 1.46675685,36.18 C1.37146273,35.9894118 1.30793332,35.7670588 1.24440391,35.5764706 C1.1808745,35.3858824 1.11734508,35.1952941 1.08558038,35.0047059 C1.02205097,34.6552941 0.958521555,34.3376471 0.958521555,34.1470588 C0.958521555,34.0517647 0.958521555,33.9564706 0.926756849,33.8929412 C0.926756849,33.8294118 0.926756849,33.7976471 0.926756849,33.7976471 C0.926756849,33.7976471 0.958521555,33.7976471 0.990286261,33.8294118 C1.05381567,33.8611765 1.11734508,33.8929412 1.2126392,33.9247059 C1.40322744,34.02 1.65734508,34.1470588 1.94322744,34.3376471 C2.22910979,34.5282353 2.54675685,34.7505882 2.89616861,35.0047059 C3.05499214,35.1317647 3.21381567,35.2905882 3.3726392,35.4176471 C3.43616861,35.4811765 3.53146273,35.5764706 3.59499214,35.6717647 C3.65852155,35.7670588 3.75381567,35.8305882 3.81734508,35.9258824 L5.43734508,39.0705882 Z" id="Path"></path>
                    <path d="M9.3126392,43.9305882 C9.3126392,43.9305882 9.3126392,43.8670588 9.34440391,43.7082353 C9.34440391,43.5811765 9.37616861,43.3905882 9.37616861,43.1682353 C9.37616861,42.9458824 9.37616861,42.6917647 9.34440391,42.4058824 C9.3126392,42.2788235 9.3126392,42.12 9.2808745,41.9929412 C9.24910979,41.8658824 9.21734508,41.7070588 9.15381567,41.58 C9.05852155,41.2941176 8.89969803,41.0717647 8.7726392,40.8494118 C8.64558038,40.6270588 8.48675685,40.4364706 8.32793332,40.2776471 C8.16910979,40.1188235 8.04205097,39.9917647 7.94675685,39.9282353 C7.85146273,39.8329412 7.78793332,39.8011765 7.78793332,39.8011765 C7.78793332,39.8011765 7.75616861,39.8647059 7.72440391,39.9917647 C7.6926392,40.1188235 7.62910979,40.3094118 7.59734508,40.5317647 C7.56558038,40.7541176 7.56558038,41.0082353 7.56558038,41.2941176 C7.56558038,41.4211765 7.59734508,41.58 7.62910979,41.7388235 C7.6608745,41.8976471 7.6926392,42.0247059 7.75616861,42.1835294 L9.3126392,43.9305882 Z" id="Path"></path>
                    <path d="M9.12205097,44.1211765 C9.12205097,44.1211765 8.99499214,44.1529412 8.80440391,44.1529412 C8.70910979,44.1529412 8.58205097,44.1529412 8.45499214,44.1529412 C8.32793332,44.1529412 8.16910979,44.1529412 8.01028626,44.1211765 C7.6926392,44.0894118 7.27969803,44.0258824 6.86675685,43.8988235 C6.45381567,43.7717647 6.0408745,43.5494118 5.62793332,43.2952941 C5.21499214,43.0094118 4.89734508,42.66 4.57969803,42.3105882 C4.29381567,41.9611765 4.07146273,41.58 3.9126392,41.2623529 C3.75381567,40.9447059 3.65852155,40.6588235 3.56322744,40.4364706 C3.49969803,40.2458824 3.46793332,40.1188235 3.46793332,40.1188235 C3.46793332,40.1188235 3.94440391,40.1823529 4.57969803,40.3729412 C4.73852155,40.4364706 4.89734508,40.4682353 5.08793332,40.5635294 C5.27852155,40.6270588 5.46910979,40.6905882 5.65969803,40.7858824 C5.85028626,40.8811765 6.0408745,40.9764706 6.23146273,41.0717647 C6.42205097,41.1670588 6.6126392,41.2941176 6.80322744,41.4211765 L9.12205097,44.1211765 Z" id="Path"></path>
                    <path d="M14.0773451,47.8694118 C14.0773451,47.8694118 14.0455804,47.5517647 13.9502863,47.1388235 C13.8867568,46.9164706 13.8232274,46.6623529 13.7279333,46.4082353 C13.6326392,46.1541176 13.5055804,45.9 13.3149921,45.6458824 C13.1561686,45.3917647 12.9655804,45.2011765 12.7749921,45.0105882 C12.7114627,44.9788235 12.679698,44.9152941 12.6161686,44.8835294 C12.5526392,44.8517647 12.5208745,44.7882353 12.4891098,44.7564706 C12.3938157,44.6929412 12.2985216,44.6294118 12.2032274,44.5658824 C12.0126392,44.4388235 11.8538157,44.3752941 11.7585216,44.3117647 C11.6314627,44.2482353 11.5679333,44.2164706 11.5679333,44.2164706 C11.5679333,44.2164706 11.5679333,44.2482353 11.5679333,44.28 C11.5679333,44.3117647 11.5679333,44.3752941 11.5679333,44.4388235 C11.5679333,44.5658824 11.5679333,44.7564706 11.599698,44.9788235 C11.6314627,45.2011765 11.6632274,45.4552941 11.7585216,45.7094118 C11.7902863,45.8364706 11.8538157,45.9635294 11.9173451,46.1223529 C11.9808745,46.2494118 12.0444039,46.3764706 12.139698,46.5035294 L14.0773451,47.8694118 Z" id="Path"></path>
                    <path d="M13.9502863,48.1235294 C13.9502863,48.1235294 13.8549921,48.1552941 13.6644039,48.2188235 C13.4738157,48.2823529 13.1879333,48.3458824 12.8702863,48.4094118 C12.5526392,48.4729412 12.139698,48.4729412 11.7267568,48.4729412 C11.6314627,48.4729412 11.5044039,48.4729412 11.4091098,48.4411765 C11.3138157,48.4411765 11.1867568,48.4094118 11.059698,48.3776471 C10.8373451,48.3141176 10.6149921,48.2505882 10.3608745,48.1870588 C10.2338157,48.1552941 10.1385216,48.0917647 10.0114627,48.06 C9.91616861,47.9964706 9.78910979,47.9647059 9.69381567,47.9011765 C9.50322744,47.7741176 9.2808745,47.6470588 9.12205097,47.52 C8.93146273,47.3929412 8.7726392,47.2341176 8.61381567,47.1070588 C8.45499214,46.98 8.32793332,46.8211765 8.2008745,46.6941176 C7.94675685,46.44 7.78793332,46.1858824 7.6608745,45.9952941 C7.53381567,45.8047059 7.47028626,45.7094118 7.47028626,45.7094118 C7.47028626,45.7094118 7.94675685,45.6458824 8.61381567,45.6776471 C8.96322744,45.6776471 9.34440391,45.7094118 9.75734508,45.8047059 C10.1702863,45.8682353 10.6149921,45.9635294 11.0279333,46.1541176 L13.9502863,48.1235294 Z" id="Path"></path>
                    <path d="M19.6361686,50.5058824 C19.6361686,50.5058824 19.5408745,50.1882353 19.3185216,49.8070588 C19.0961686,49.4258824 18.8102863,48.9176471 18.3338157,48.5364706 C18.2067568,48.4411765 18.1114627,48.3458824 17.9844039,48.2823529 C17.8573451,48.2188235 17.762051,48.1235294 17.6349921,48.06 C17.5079333,47.9964706 17.4126392,47.9647059 17.2855804,47.9011765 C17.1585216,47.8694118 17.0632274,47.8058824 16.9679333,47.7741176 C16.5867568,47.6470588 16.2691098,47.5835294 16.2691098,47.5835294 C16.2691098,47.5835294 16.3008745,47.9011765 16.459698,48.3141176 C16.5232274,48.5047059 16.6502863,48.7588235 16.7773451,48.9811765 C16.9361686,49.2035294 17.1267568,49.4576471 17.3491098,49.6482353 L19.6361686,50.5058824 Z" id="Path"></path>
                    <path d="M19.5726392,50.76 C19.5726392,50.76 19.2232274,51.0458824 18.5879333,51.3317647 C18.5244039,51.3635294 18.4291098,51.3952941 18.3338157,51.4270588 C18.2385216,51.4588235 18.1749921,51.4905882 18.079698,51.5223529 C17.8891098,51.5858824 17.6985216,51.6176471 17.4761686,51.6811765 C17.2538157,51.7129412 17.0314627,51.7447059 16.8091098,51.7764706 C16.5867568,51.7764706 16.3326392,51.7764706 16.0785216,51.7447059 C15.8244039,51.7129412 15.602051,51.6811765 15.3479333,51.6176471 C15.1255804,51.5541176 14.9032274,51.4588235 14.6808745,51.3952941 C14.4585216,51.3 14.2679333,51.2047059 14.1091098,51.1094118 C13.9185216,51.0141176 13.759698,50.8870588 13.6008745,50.7917647 C13.3149921,50.6011765 13.0608745,50.4105882 12.902051,50.2517647 C12.7432274,50.0929412 12.6479333,49.9976471 12.6479333,49.9976471 C12.6479333,49.9976471 12.7749921,49.9658824 12.9655804,49.9023529 C13.1561686,49.8388235 13.442051,49.7752941 13.759698,49.7117647 C14.1091098,49.6482353 14.4902863,49.5847059 14.9032274,49.5529412 C15.3161686,49.5211765 15.7608745,49.4894118 16.2373451,49.5529412 L19.5726392,50.76 Z" id="Path"></path>
                    <path d="M19.8902863,3.36705882 C19.8902863,3.36705882 19.9538157,3.39882353 20.0808745,3.49411765 C20.1444039,3.52588235 20.2079333,3.55764706 20.3032274,3.62117647 C20.3985216,3.65294118 20.462051,3.71647059 20.5891098,3.78 C20.779698,3.87529412 21.0338157,3.97058824 21.2879333,4.06588235 C21.4149921,4.09764706 21.542051,4.12941176 21.7008745,4.16117647 C21.8279333,4.19294118 21.9867568,4.22470588 22.1455804,4.22470588 C22.4314627,4.25647059 22.7173451,4.22470588 22.9714627,4.19294118 C23.2255804,4.16117647 23.479698,4.09764706 23.6702863,4.03411765 C23.8608745,3.97058824 24.019698,3.90705882 24.1467568,3.84352941 C24.2738157,3.78 24.3373451,3.74823529 24.3373451,3.74823529 C24.3373451,3.74823529 24.2738157,3.68470588 24.1785216,3.58941176 C24.0832274,3.49411765 23.9244039,3.36705882 23.7655804,3.27176471 C23.5749921,3.14470588 23.3526392,3.01764706 23.0985216,2.92235294 C22.9714627,2.85882353 22.8444039,2.82705882 22.6855804,2.79529412 C22.5267568,2.76352941 22.399698,2.73176471 22.2408745,2.73176471 L19.8902863,3.36705882 Z" id="Path"></path>
                    <path d="M19.8902863,3.46235294 C19.8902863,3.46235294 19.922051,3.33529412 19.9855804,3.17647059 C20.0491098,2.98588235 20.1761686,2.73176471 20.3349921,2.44588235 C20.4938157,2.16 20.7479333,1.84235294 21.0338157,1.52470588 C21.319698,1.20705882 21.7008745,0.921176471 22.1138157,0.667058824 C22.5585216,0.444705882 23.0032274,0.254117647 23.4479333,0.158823529 C23.8926392,0.0635294118 24.3055804,0.0317647059 24.6549921,1.70974346e-14 C25.0044039,1.70974346e-14 25.322051,0.0317647059 25.5444039,0.0317647059 C25.7667568,0.0635294118 25.8938157,0.0635294118 25.8938157,0.0635294118 C25.8938157,0.0635294118 25.639698,0.476470588 25.1632274,0.952941176 C24.9408745,1.20705882 24.6549921,1.49294118 24.3373451,1.74705882 C24.1785216,1.87411765 23.9879333,2.06470588 23.5749921,2.35058824 L19.8902863,3.46235294 Z" id="Path"></path>
                    <path d="M14.1091098,6.25764706 C14.1091098,6.25764706 14.1726392,6.28941176 14.299698,6.32117647 C14.4267568,6.35294118 14.6173451,6.41647059 14.839698,6.44823529 C15.062051,6.48 15.3161686,6.54352941 15.5702863,6.54352941 C15.8561686,6.57529412 16.1102863,6.54352941 16.4279333,6.51176471 C16.7138157,6.48 16.999698,6.38470588 17.222051,6.25764706 C17.4761686,6.16235294 17.6667568,6.03529412 17.8573451,5.94 C18.0479333,5.84470588 18.1749921,5.71764706 18.2702863,5.65411765 C18.3655804,5.59058824 18.4291098,5.52705882 18.4291098,5.52705882 C18.4291098,5.52705882 18.3655804,5.49529412 18.2385216,5.43176471 C18.1114627,5.36823529 17.9526392,5.30470588 17.7302863,5.20941176 C17.5079333,5.14588235 17.2855804,5.08235294 16.999698,5.05058824 C16.8726392,5.01882353 16.7138157,5.01882353 16.5549921,5.01882353 C16.3961686,5.01882353 16.2691098,5.05058824 16.1102863,5.05058824 L14.1091098,6.25764706 Z" id="Path"></path>
                    <path d="M13.9502863,6.03529412 C13.9502863,6.03529412 13.9502863,5.90823529 13.982051,5.71764706 C14.0138157,5.52705882 14.0455804,5.24117647 14.1408745,4.92352941 C14.2361686,4.60588235 14.3632274,4.22470588 14.5855804,3.84352941 C14.7761686,3.46235294 15.062051,3.08117647 15.4114627,2.73176471 C15.4432274,2.7 15.5067568,2.63647059 15.5385216,2.60470588 C15.5702863,2.57294118 15.6338157,2.54117647 15.6655804,2.47764706 C15.7608745,2.41411765 15.8561686,2.31882353 15.9514627,2.25529412 C16.142051,2.12823529 16.3326392,2.00117647 16.5549921,1.87411765 C16.9679333,1.65176471 17.3491098,1.52470588 17.6985216,1.42941176 C17.8573451,1.36588235 18.0479333,1.33411765 18.1749921,1.30235294 C18.3338157,1.27058824 18.4608745,1.23882353 18.5561686,1.23882353 C18.7785216,1.20705882 18.9055804,1.20705882 18.9055804,1.20705882 C18.9055804,1.20705882 18.7467568,1.65176471 18.4291098,2.25529412 C18.3973451,2.31882353 18.3338157,2.41411765 18.302051,2.47764706 C18.2702863,2.57294118 18.2067568,2.63647059 18.1749921,2.73176471 C18.079698,2.89058824 17.9526392,3.08117647 17.8573451,3.24 C17.7302863,3.39882353 17.6032274,3.58941176 17.4761686,3.74823529 C17.3491098,3.90705882 17.1902863,4.09764706 17.0314627,4.25647059 L13.9502863,6.03529412 Z" id="Path"></path>
                    <path d="M9.34440391,10.1964706 C9.34440391,10.1964706 9.66205097,10.2282353 10.1067568,10.1964706 C10.202051,10.1964706 10.3291098,10.1647059 10.4561686,10.1647059 C10.5832274,10.1647059 10.7102863,10.1329412 10.8373451,10.1011765 C11.0914627,10.0376471 11.3773451,9.97411765 11.6632274,9.84705882 C12.2032274,9.62470588 12.6161686,9.24352941 12.902051,8.95764706 C13.1879333,8.67176471 13.3467568,8.38588235 13.3467568,8.38588235 C13.3467568,8.38588235 13.0608745,8.29058824 12.6161686,8.25882353 C12.3938157,8.22705882 12.139698,8.22705882 11.8538157,8.25882353 C11.5679333,8.29058824 11.282051,8.38588235 10.9961686,8.48117647 L9.34440391,10.1964706 Z" id="Path"></path>
                    <path d="M9.12205097,10.0058824 C9.12205097,10.0058824 9.02675685,9.56117647 9.02675685,8.89411765 C9.02675685,8.54470588 9.09028626,8.16352941 9.18558038,7.75058824 C9.2808745,7.33764706 9.47146273,6.89294118 9.72558038,6.48 C9.97969803,6.03529412 10.2973451,5.68588235 10.6467568,5.4 C10.742051,5.33647059 10.8055804,5.24117647 10.9008745,5.17764706 C10.9961686,5.11411765 11.059698,5.05058824 11.1549921,4.98705882 C11.3138157,4.86 11.4726392,4.76470588 11.6314627,4.66941176 C11.7902863,4.57411765 11.9173451,4.47882353 12.0761686,4.41529412 C12.2032274,4.35176471 12.3302863,4.28823529 12.4255804,4.25647059 C12.6161686,4.16117647 12.7432274,4.12941176 12.7432274,4.12941176 C12.7432274,4.12941176 12.7432274,4.25647059 12.7114627,4.44705882 C12.679698,4.63764706 12.6161686,4.92352941 12.5526392,5.27294118 C12.4891098,5.62235294 12.362051,6.00352941 12.2349921,6.38470588 C12.2032274,6.48 12.1714627,6.57529412 12.1079333,6.67058824 C12.0761686,6.76588235 12.0126392,6.86117647 11.9808745,6.98823529 C11.8855804,7.17882353 11.7902863,7.40117647 11.6632274,7.59176471 L9.12205097,10.0058824 Z" id="Path"></path>
                    <path d="M5.69146273,15.1835294 C5.69146273,15.1835294 6.00910979,15.1517647 6.42205097,15.0247059 C6.64440391,14.9611765 6.86675685,14.8658824 7.1208745,14.7388235 C7.37499214,14.6117647 7.62910979,14.4847059 7.85146273,14.2941176 C8.07381567,14.1035294 8.29616861,13.9129412 8.45499214,13.6905882 C8.55028626,13.5952941 8.61381567,13.5 8.67734508,13.3729412 C8.7408745,13.2776471 8.80440391,13.1823529 8.86793332,13.0870588 C9.09028626,12.7376471 9.18558038,12.4517647 9.18558038,12.4517647 C9.18558038,12.4517647 8.86793332,12.42 8.45499214,12.5152941 C8.01028626,12.5788235 7.47028626,12.7694118 6.96205097,13.1505882 L5.69146273,15.1835294 Z" id="Path"></path>
                    <path d="M5.43734508,15.0564706 C5.43734508,15.0564706 5.21499214,14.6435294 5.08793332,13.9764706 C5.05616861,13.8176471 5.02440391,13.6270588 4.9926392,13.4364706 C4.9608745,13.2458824 4.9608745,13.0552941 4.9608745,12.8329412 C4.9608745,12.6105882 4.9608745,12.3882353 4.9926392,12.1658824 C5.02440391,11.9435294 5.08793332,11.6894118 5.15146273,11.4670588 C5.21499214,11.2447059 5.31028626,10.9905882 5.40558038,10.8 C5.5008745,10.5776471 5.62793332,10.3870588 5.75499214,10.1964706 C5.88205097,10.0058824 6.00910979,9.84705882 6.13616861,9.65647059 C6.26322744,9.49764706 6.39028626,9.37058824 6.54910979,9.24352941 C6.80322744,8.98941176 7.02558038,8.79882353 7.21616861,8.67176471 C7.37499214,8.54470588 7.50205097,8.48117647 7.50205097,8.48117647 C7.50205097,8.48117647 7.53381567,8.60823529 7.53381567,8.79882353 C7.53381567,8.89411765 7.56558038,9.02117647 7.56558038,9.14823529 C7.56558038,9.27529412 7.59734508,9.43411765 7.59734508,9.62470588 C7.59734508,9.97411765 7.59734508,10.3552941 7.53381567,10.7682353 C7.50205097,11.1811765 7.40675685,11.6258824 7.27969803,12.0705882 L5.43734508,15.0564706 Z" id="Path"></path>
                    <path d="M3.40440391,20.9329412 C3.40440391,20.9329412 3.69028626,20.8058824 4.07146273,20.5835294 C4.26205097,20.4564706 4.48440391,20.3294118 4.67499214,20.1388235 C4.86558038,19.9482353 5.08793332,19.7576471 5.27852155,19.5352941 C5.37381567,19.4082353 5.43734508,19.2811765 5.5008745,19.1858824 C5.56440391,19.0588235 5.62793332,18.9317647 5.69146273,18.8364706 C5.78675685,18.6141176 5.88205097,18.36 5.91381567,18.1694118 C5.97734508,17.9788235 6.00910979,17.7882353 6.0408745,17.6611765 C6.0726392,17.5341176 6.0726392,17.4705882 6.0726392,17.4705882 C6.0726392,17.4705882 5.75499214,17.5341176 5.37381567,17.6929412 C5.15146273,17.7882353 4.9608745,17.9152941 4.73852155,18.0741176 C4.51616861,18.2329412 4.29381567,18.4235294 4.10322744,18.6776471 L3.40440391,20.9329412 Z" id="Path"></path>
                    <path d="M3.15028626,20.8694118 C3.15028626,20.8694118 3.11852155,20.8376471 3.08675685,20.8058824 C3.05499214,20.7741176 2.99146273,20.7105882 2.95969803,20.6152941 C2.8326392,20.4564706 2.70558038,20.2341176 2.54675685,19.9164706 C2.38793332,19.6305882 2.22910979,19.2494118 2.13381567,18.8364706 C2.07028626,18.6141176 2.03852155,18.4235294 2.00675685,18.1694118 C2.00675685,18.0423529 1.97499214,17.9470588 1.97499214,17.82 C1.97499214,17.6929412 1.97499214,17.5658824 1.97499214,17.4705882 C2.00675685,16.4858824 2.38793332,15.5647059 2.76910979,14.9611765 C2.95969803,14.6435294 3.15028626,14.3894118 3.27734508,14.2305882 C3.3408745,14.1352941 3.40440391,14.0717647 3.43616861,14.04 C3.46793332,14.0082353 3.49969803,13.9764706 3.49969803,13.9764706 C3.49969803,13.9764706 3.49969803,14.0082353 3.53146273,14.04 C3.56322744,14.1035294 3.59499214,14.1670588 3.62675685,14.2623529 C3.69028626,14.4529412 3.78558038,14.7388235 3.8808745,15.0564706 C4.03969803,15.7235294 4.23028626,16.5811765 4.19852155,17.5023529 L3.15028626,20.8694118 Z" id="Path"></path>
                    <path d="M2.64205097,27.0635294 C2.64205097,27.0635294 2.89616861,26.8729412 3.21381567,26.5552941 C3.3726392,26.3964706 3.53146273,26.2058824 3.69028626,25.9835294 C3.84910979,25.7611765 4.00793332,25.5070588 4.10322744,25.2529412 C4.32558038,24.7129412 4.38910979,24.1729412 4.38910979,23.7282353 C4.38910979,23.5058824 4.38910979,23.3470588 4.35734508,23.22 C4.35734508,23.0929412 4.32558038,23.0294118 4.32558038,23.0294118 C4.32558038,23.0294118 4.03969803,23.1564706 3.69028626,23.4423529 C3.53146273,23.5694118 3.3408745,23.76 3.15028626,23.9823529 C3.05499214,24.0776471 2.99146273,24.2047059 2.89616861,24.3317647 C2.8326392,24.4588235 2.73734508,24.5858824 2.67381567,24.7447059 L2.64205097,27.0635294 Z" id="Path"></path>
                    <path d="M2.35616861,27.0635294 C2.35616861,27.0635294 1.97499214,26.8094118 1.53028626,26.3011765 C1.30793332,26.0470588 1.05381567,25.7294118 0.863227437,25.3482353 C0.767933319,25.1576471 0.672639202,24.9670588 0.577345084,24.7447059 C0.482050966,24.5223529 0.418521555,24.3 0.354992143,24.0458824 C0.291462731,23.7917647 0.291462731,23.5694118 0.259698025,23.3152941 C0.259698025,23.0929412 0.227933319,22.8388235 0.259698025,22.6164706 C0.291462731,22.1717647 0.386756849,21.7588235 0.482050966,21.4094118 C0.704403908,20.7105882 0.926756849,20.2658824 0.926756849,20.2658824 C0.926756849,20.2658824 1.24440391,20.6470588 1.56205097,21.2188235 C1.65734508,21.3776471 1.7208745,21.5364706 1.81616861,21.6952941 C1.91146273,21.8541176 2.00675685,22.0447059 2.07028626,22.2352941 C2.16558038,22.4258824 2.22910979,22.6164706 2.2926392,22.8388235 C2.32440391,22.9341176 2.35616861,23.0611765 2.38793332,23.1564706 C2.41969803,23.2517647 2.45146273,23.3788235 2.48322744,23.5058824 L2.35616861,27.0635294 Z" id="Path"></path>
                </g>
                <path d="M26.2114627,55.4929412 C26.1161686,55.4929412 26.0526392,55.4611765 25.9891098,55.3658824 C24.4326392,52.7294118 22.0185216,51.5858824 20.2714627,51.0776471 C9.66205097,47.9964706 2.22910979,38.1176471 2.22910979,27.0317647 C2.22910979,21.2823529 4.23028626,15.6917647 7.85146273,11.2447059 C11.4091098,6.86117647 16.3961686,3.78 21.8914627,2.60470588 C22.0185216,2.57294118 22.1773451,2.66823529 22.1773451,2.79529412 C22.2091098,2.92235294 22.1138157,3.08117647 21.9867568,3.08117647 C10.8373451,5.52705882 2.73734508,15.5964706 2.73734508,27.0317647 C2.73734508,37.8635294 10.0114627,47.5517647 20.3985216,50.5694118 C23.0349921,51.3317647 25.1314627,52.8882353 26.402051,55.08 C26.4655804,55.2070588 26.4338157,55.3658824 26.3067568,55.4294118 C26.3067568,55.4929412 26.2432274,55.4929412 26.2114627,55.4929412 Z" id="Path"></path>
                <g id="Group-2" transform="translate(27.227933, 0.000000)">
                    <path d="M23.0611765,33.1941176 C23.0611765,33.1941176 22.8705882,32.94 22.6482353,32.5588235 C22.5529412,32.3682353 22.4258824,32.1458824 22.3305882,31.8917647 C22.2352941,31.6376471 22.14,31.3517647 22.1082353,31.0658824 C22.0764706,30.9070588 22.0764706,30.78 22.0764706,30.6529412 C22.0764706,30.5258824 22.0764706,30.3670588 22.0764706,30.24 C22.1082353,29.9858824 22.14,29.7317647 22.2035294,29.5411765 C22.2670588,29.3505882 22.2988235,29.16 22.3305882,29.0329412 C22.3623529,28.9058824 22.3941176,28.8423529 22.3941176,28.8423529 C22.3941176,28.8423529 22.6482353,29.0329412 22.9023529,29.3823529 C22.9341176,29.4141176 22.9658824,29.4776471 22.9976471,29.5094118 C23.0294118,29.5729412 23.0611765,29.6047059 23.0929412,29.6682353 C23.1564706,29.7635294 23.22,29.8905882 23.2835294,30.0176471 C23.4105882,30.2717647 23.5058824,30.5576471 23.5376471,30.8752941 L23.0611765,33.1941176 Z" id="Path"></path>
                    <path d="M23.3152941,33.2576471 C23.3152941,33.2576471 23.7282353,33.0988235 24.3,32.7176471 C24.4270588,32.6223529 24.5858824,32.5270588 24.7447059,32.4 C24.9035294,32.2729412 25.0305882,32.1458824 25.1894118,31.9870588 C25.3482353,31.8282353 25.4752941,31.6694118 25.6023529,31.4788235 C25.6658824,31.3835294 25.7294118,31.2882353 25.7929412,31.1929412 C25.8564706,31.0976471 25.92,30.9705882 25.9517647,30.8752941 C26.3964706,29.9858824 26.4917647,29.0329412 26.46,28.3023529 C26.4282353,27.5717647 26.3011765,27.0952941 26.3011765,27.0952941 C26.3011765,27.0952941 25.92,27.3811765 25.4435294,27.8576471 C25.1894118,28.1117647 24.9670588,28.3976471 24.6811765,28.7152941 C24.5541176,28.8741176 24.4270588,29.0647059 24.3,29.2552941 C24.1729412,29.4458824 24.0776471,29.6364706 23.9823529,29.8588235 L23.3152941,33.2576471 Z" id="Path"></path>
                    <path d="M20.8058824,38.9435294 C20.8058824,38.9435294 20.7741176,38.88 20.7423529,38.7529412 C20.6788235,38.6258824 20.6152941,38.4352941 20.5835294,38.2447059 C20.52,38.0223529 20.4564706,37.7682353 20.4564706,37.5141176 C20.4564706,37.4505882 20.4564706,37.3870588 20.4247059,37.3235294 C20.4247059,37.26 20.4247059,37.1964706 20.4247059,37.1011765 C20.4247059,36.9423529 20.4247059,36.8152941 20.4247059,36.6564706 C20.4882353,36.0847059 20.6788235,35.5447059 20.9011765,35.1952941 C20.9329412,35.1635294 20.9647059,35.1 20.9647059,35.0682353 C20.9964706,35.0364706 20.9964706,34.9729412 21.0282353,34.9411765 C21.06,34.8776471 21.1235294,34.8141176 21.1552941,34.7505882 C21.2188235,34.6552941 21.2823529,34.5917647 21.2823529,34.5917647 C21.2823529,34.5917647 21.4729412,34.8458824 21.6317647,35.2588235 C21.7270588,35.4494118 21.7905882,35.7035294 21.8541176,35.9894118 C21.8858824,36.1164706 21.8858824,36.2752941 21.9176471,36.4023529 C21.9176471,36.5611765 21.9176471,36.72 21.9176471,36.8470588 L20.8058824,38.9435294 Z" id="Path"></path>
                    <path d="M21.0282353,39.0705882 C21.0282353,39.0705882 21.06,39.0705882 21.1235294,39.0705882 C21.1870588,39.0705882 21.2505882,39.0388235 21.3458824,39.0388235 C21.5364706,39.0070588 21.8223529,38.9435294 22.14,38.8164706 C22.7752941,38.5941176 23.5694118,38.1494118 24.2364706,37.4188235 C24.3952941,37.2282353 24.5223529,37.0376471 24.6494118,36.8152941 C24.7129412,36.72 24.7764706,36.6247059 24.84,36.4976471 C24.9035294,36.4023529 24.9352941,36.2752941 24.9988235,36.18 C25.0941176,35.9894118 25.1576471,35.7670588 25.2211765,35.5764706 C25.2847059,35.3858824 25.3482353,35.1952941 25.38,35.0047059 C25.4435294,34.6552941 25.5070588,34.3376471 25.5070588,34.1470588 C25.5070588,34.0517647 25.5070588,33.9564706 25.5388235,33.8929412 C25.5388235,33.8294118 25.5388235,33.7976471 25.5388235,33.7976471 C25.5388235,33.7976471 25.5070588,33.7976471 25.4752941,33.8294118 C25.4117647,33.8611765 25.3482353,33.8929412 25.2529412,33.9247059 C25.0623529,34.02 24.8082353,34.1470588 24.5223529,34.3376471 C24.2364706,34.5282353 23.9188235,34.7505882 23.5694118,35.0047059 C23.4105882,35.1317647 23.2517647,35.2905882 23.0929412,35.4176471 C23.0294118,35.4811765 22.9341176,35.5764706 22.8705882,35.6717647 C22.8070588,35.7670588 22.7117647,35.8305882 22.6482353,35.9258824 L21.0282353,39.0705882 Z" id="Path"></path>
                    <path d="M17.1529412,43.9305882 C17.1529412,43.9305882 17.1529412,43.8670588 17.1211765,43.7082353 C17.1211765,43.5811765 17.0894118,43.3905882 17.0894118,43.1682353 C17.0894118,42.9458824 17.0894118,42.6917647 17.1211765,42.4058824 C17.1529412,42.2788235 17.1529412,42.12 17.1847059,41.9929412 C17.2164706,41.8658824 17.2482353,41.7070588 17.3117647,41.58 C17.4070588,41.2941176 17.5658824,41.0717647 17.6929412,40.8494118 C17.82,40.6270588 17.9788235,40.4364706 18.1376471,40.2776471 C18.2964706,40.1188235 18.4235294,39.9917647 18.5188235,39.9282353 C18.6141176,39.8329412 18.6776471,39.8011765 18.6776471,39.8011765 C18.6776471,39.8011765 18.7094118,39.8647059 18.7411765,39.9917647 C18.7729412,40.1188235 18.8364706,40.3094118 18.8682353,40.5317647 C18.9,40.7541176 18.9,41.0082353 18.9,41.2941176 C18.9,41.4211765 18.8682353,41.58 18.8364706,41.7388235 C18.8047059,41.8976471 18.7729412,42.0247059 18.7094118,42.1835294 L17.1529412,43.9305882 Z" id="Path"></path>
                    <path d="M17.3435294,44.1211765 C17.3435294,44.1211765 17.4705882,44.1529412 17.6611765,44.1529412 C17.7564706,44.1529412 17.8835294,44.1529412 18.0105882,44.1529412 C18.1376471,44.1529412 18.2964706,44.1529412 18.4552941,44.1211765 C18.7729412,44.0894118 19.1858824,44.0258824 19.5988235,43.8988235 C20.0117647,43.7717647 20.4247059,43.5494118 20.8376471,43.2952941 C21.2505882,43.0094118 21.5682353,42.66 21.8858824,42.3105882 C22.1717647,41.9611765 22.3941176,41.58 22.5529412,41.2623529 C22.7117647,40.9447059 22.8070588,40.6588235 22.9023529,40.4364706 C22.9658824,40.2458824 22.9976471,40.1188235 22.9976471,40.1188235 C22.9976471,40.1188235 22.5211765,40.1823529 21.8858824,40.3729412 C21.7270588,40.4364706 21.5682353,40.4682353 21.3776471,40.5635294 C21.1870588,40.6270588 20.9964706,40.6905882 20.8058824,40.7858824 C20.6152941,40.8811765 20.4247059,40.9764706 20.2341176,41.0717647 C20.0435294,41.1670588 19.8529412,41.2941176 19.6623529,41.4211765 L17.3435294,44.1211765 Z" id="Path"></path>
                    <path d="M12.3882353,47.8694118 C12.3882353,47.8694118 12.42,47.5517647 12.5152941,47.1388235 C12.5788235,46.9164706 12.6423529,46.6623529 12.7376471,46.4082353 C12.8329412,46.1541176 12.96,45.9 13.1505882,45.6458824 C13.3094118,45.3917647 13.5,45.2011765 13.6905882,45.0105882 C13.7541176,44.9788235 13.7858824,44.9152941 13.8494118,44.8835294 C13.9129412,44.8517647 13.9447059,44.7882353 13.9764706,44.7564706 C14.0717647,44.6929412 14.1670588,44.6294118 14.2623529,44.5658824 C14.4529412,44.4388235 14.6117647,44.3752941 14.7070588,44.3117647 C14.8341176,44.2482353 14.8976471,44.2164706 14.8976471,44.2164706 C14.8976471,44.2164706 14.8976471,44.2482353 14.8976471,44.28 C14.8976471,44.3117647 14.8976471,44.3752941 14.8976471,44.4388235 C14.8976471,44.5658824 14.8976471,44.7564706 14.8658824,44.9788235 C14.8341176,45.2011765 14.8023529,45.4552941 14.7070588,45.7094118 C14.6752941,45.8364706 14.6117647,45.9635294 14.5482353,46.1223529 C14.4847059,46.2494118 14.4211765,46.3764706 14.3258824,46.5035294 L12.3882353,47.8694118 Z" id="Path"></path>
                    <path d="M12.5152941,48.1235294 C12.5152941,48.1235294 12.6105882,48.1552941 12.8011765,48.2188235 C12.9917647,48.2823529 13.2776471,48.3458824 13.5952941,48.4094118 C13.9129412,48.4729412 14.3258824,48.4729412 14.7388235,48.4729412 C14.8341176,48.4729412 14.9611765,48.4729412 15.0564706,48.4411765 C15.1517647,48.4411765 15.2788235,48.4094118 15.4058824,48.3776471 C15.6282353,48.3141176 15.8505882,48.2505882 16.1047059,48.1870588 C16.2317647,48.1552941 16.3270588,48.0917647 16.4541176,48.06 C16.5494118,47.9964706 16.6764706,47.9647059 16.7717647,47.9011765 C16.9623529,47.7741176 17.1847059,47.6470588 17.3435294,47.52 C17.5341176,47.3929412 17.6929412,47.2341176 17.8517647,47.1070588 C18.0105882,46.98 18.1376471,46.8211765 18.2647059,46.6941176 C18.5188235,46.44 18.6776471,46.1858824 18.8047059,45.9952941 C18.9317647,45.8047059 18.9952941,45.7094118 18.9952941,45.7094118 C18.9952941,45.7094118 18.5188235,45.6458824 17.8517647,45.6776471 C17.5023529,45.6776471 17.1211765,45.7094118 16.7082353,45.8047059 C16.2952941,45.8682353 15.8505882,45.9635294 15.4376471,46.1541176 L12.5152941,48.1235294 Z" id="Path"></path>
                    <path d="M6.82941176,50.5058824 C6.82941176,50.5058824 6.92470588,50.1882353 7.14705882,49.8070588 C7.36941176,49.4258824 7.65529412,48.9176471 8.13176471,48.5364706 C8.25882353,48.4411765 8.35411765,48.3458824 8.48117647,48.2823529 C8.60823529,48.2188235 8.70352941,48.1235294 8.83058824,48.06 C8.95764706,47.9964706 9.05294118,47.9647059 9.18,47.9011765 C9.30705882,47.8694118 9.40235294,47.8058824 9.49764706,47.7741176 C9.87882353,47.6470588 10.1964706,47.5835294 10.1964706,47.5835294 C10.1964706,47.5835294 10.1647059,47.9011765 10.0058824,48.3141176 C9.94235294,48.5047059 9.81529412,48.7588235 9.68823529,48.9811765 C9.52941176,49.2035294 9.33882353,49.4576471 9.11647059,49.6482353 L6.82941176,50.5058824 Z" id="Path"></path>
                    <path d="M6.89294118,50.76 C6.89294118,50.76 7.24235294,51.0458824 7.87764706,51.3317647 C7.94117647,51.3635294 8.03647059,51.3952941 8.13176471,51.4270588 C8.22705882,51.4588235 8.29058824,51.4905882 8.38588235,51.5223529 C8.57647059,51.5858824 8.76705882,51.6176471 8.98941176,51.6811765 C9.21176471,51.7129412 9.43411765,51.7447059 9.65647059,51.7764706 C9.87882353,51.7764706 10.1329412,51.7764706 10.3870588,51.7447059 C10.6411765,51.7129412 10.8635294,51.6811765 11.1176471,51.6176471 C11.34,51.5541176 11.5623529,51.4588235 11.7847059,51.3952941 C12.0070588,51.3 12.1976471,51.2047059 12.3564706,51.1094118 C12.5470588,51.0141176 12.7058824,50.8870588 12.8647059,50.7917647 C13.1505882,50.6011765 13.4047059,50.4105882 13.5635294,50.2517647 C13.7223529,50.0929412 13.8176471,49.9976471 13.8176471,49.9976471 C13.8176471,49.9976471 13.6905882,49.9658824 13.5,49.9023529 C13.3094118,49.8388235 13.0235294,49.7752941 12.7058824,49.7117647 C12.3564706,49.6482353 11.9752941,49.5847059 11.5623529,49.5529412 C11.1494118,49.5211765 10.7047059,49.4894118 10.2282353,49.5529412 L6.89294118,50.76 Z" id="Path"></path>
                    <path d="M6.57529412,3.36705882 C6.57529412,3.36705882 6.51176471,3.39882353 6.38470588,3.49411765 C6.32117647,3.52588235 6.25764706,3.55764706 6.16235294,3.62117647 C6.06705882,3.65294118 6.00352941,3.71647059 5.87647059,3.78 C5.68588235,3.87529412 5.43176471,3.97058824 5.17764706,4.06588235 C5.05058824,4.09764706 4.92352941,4.12941176 4.76470588,4.16117647 C4.63764706,4.19294118 4.47882353,4.22470588 4.32,4.22470588 C4.03411765,4.25647059 3.74823529,4.22470588 3.49411765,4.19294118 C3.24,4.16117647 2.98588235,4.09764706 2.79529412,4.03411765 C2.60470588,3.97058824 2.44588235,3.90705882 2.31882353,3.84352941 C2.19176471,3.78 2.12823529,3.74823529 2.12823529,3.74823529 C2.12823529,3.74823529 2.19176471,3.68470588 2.28705882,3.58941176 C2.38235294,3.49411765 2.54117647,3.36705882 2.7,3.27176471 C2.89058824,3.14470588 3.11294118,3.01764706 3.36705882,2.92235294 C3.49411765,2.85882353 3.62117647,2.82705882 3.78,2.79529412 C3.93882353,2.76352941 4.06588235,2.73176471 4.22470588,2.73176471 L6.57529412,3.36705882 Z" id="Path"></path>
                    <path d="M6.57529412,3.46235294 C6.57529412,3.46235294 6.54352941,3.33529412 6.48,3.17647059 C6.41647059,2.98588235 6.28941176,2.73176471 6.13058824,2.44588235 C5.97176471,2.16 5.71764706,1.84235294 5.43176471,1.52470588 C5.14588235,1.20705882 4.76470588,0.921176471 4.35176471,0.667058824 C3.90705882,0.444705882 3.46235294,0.254117647 3.01764706,0.158823529 C2.57294118,0.0635294118 2.16,0.0317647059 1.81058824,1.70974346e-14 C1.46117647,1.70974346e-14 1.14352941,0.0317647059 0.921176471,0.0317647059 C0.698823529,0.0635294118 0.571764706,0.0635294118 0.571764706,0.0635294118 C0.571764706,0.0635294118 0.825882353,0.476470588 1.30235294,0.952941176 C1.52470588,1.20705882 1.81058824,1.49294118 2.12823529,1.74705882 C2.28705882,1.87411765 2.47764706,2.06470588 2.89058824,2.35058824 L6.57529412,3.46235294 Z" id="Path"></path>
                    <path d="M12.3564706,6.25764706 C12.3564706,6.25764706 12.2929412,6.28941176 12.1658824,6.32117647 C12.0388235,6.35294118 11.8482353,6.41647059 11.6258824,6.44823529 C11.4035294,6.48 11.1494118,6.54352941 10.8952941,6.54352941 C10.6094118,6.57529412 10.3552941,6.54352941 10.0376471,6.51176471 C9.75176471,6.48 9.46588235,6.38470588 9.24352941,6.25764706 C8.98941176,6.16235294 8.79882353,6.03529412 8.60823529,5.94 C8.41764706,5.84470588 8.29058824,5.71764706 8.19529412,5.65411765 C8.1,5.59058824 8.03647059,5.52705882 8.03647059,5.52705882 C8.03647059,5.52705882 8.1,5.49529412 8.22705882,5.43176471 C8.35411765,5.36823529 8.51294118,5.30470588 8.73529412,5.20941176 C8.95764706,5.14588235 9.18,5.08235294 9.46588235,5.05058824 C9.59294118,5.01882353 9.75176471,5.01882353 9.91058824,5.01882353 C10.0694118,5.01882353 10.1964706,5.05058824 10.3552941,5.05058824 L12.3564706,6.25764706 Z" id="Path"></path>
                    <path d="M12.5152941,6.03529412 C12.5152941,6.03529412 12.5152941,5.90823529 12.4835294,5.71764706 C12.4517647,5.52705882 12.42,5.24117647 12.3247059,4.92352941 C12.2294118,4.60588235 12.1023529,4.22470588 11.88,3.84352941 C11.6894118,3.46235294 11.4035294,3.08117647 11.0541176,2.73176471 C11.0223529,2.7 10.9588235,2.63647059 10.9270588,2.60470588 C10.8952941,2.57294118 10.8317647,2.54117647 10.8,2.47764706 C10.7047059,2.41411765 10.6094118,2.31882353 10.5141176,2.25529412 C10.3235294,2.12823529 10.1329412,2.00117647 9.91058824,1.87411765 C9.49764706,1.65176471 9.11647059,1.52470588 8.76705882,1.42941176 C8.60823529,1.36588235 8.41764706,1.33411765 8.29058824,1.30235294 C8.13176471,1.27058824 8.00470588,1.23882353 7.90941176,1.23882353 C7.68705882,1.20705882 7.56,1.20705882 7.56,1.20705882 C7.56,1.20705882 7.71882353,1.65176471 8.03647059,2.25529412 C8.06823529,2.31882353 8.13176471,2.41411765 8.16352941,2.47764706 C8.19529412,2.57294118 8.25882353,2.63647059 8.29058824,2.73176471 C8.38588235,2.89058824 8.51294118,3.08117647 8.60823529,3.24 C8.73529412,3.39882353 8.86235294,3.58941176 8.98941176,3.74823529 C9.11647059,3.90705882 9.27529412,4.09764706 9.43411765,4.25647059 L12.5152941,6.03529412 Z" id="Path"></path>
                    <path d="M17.1211765,10.1964706 C17.1211765,10.1964706 16.8035294,10.2282353 16.3588235,10.1964706 C16.2635294,10.1964706 16.1364706,10.1647059 16.0094118,10.1647059 C15.8823529,10.1647059 15.7552941,10.1329412 15.6282353,10.1011765 C15.3741176,10.0376471 15.0882353,9.97411765 14.8023529,9.84705882 C14.2623529,9.62470588 13.8494118,9.24352941 13.5635294,8.95764706 C13.2776471,8.67176471 13.1188235,8.38588235 13.1188235,8.38588235 C13.1188235,8.38588235 13.4047059,8.29058824 13.8494118,8.25882353 C14.0717647,8.22705882 14.3258824,8.22705882 14.6117647,8.25882353 C14.8976471,8.29058824 15.1835294,8.38588235 15.4694118,8.48117647 L17.1211765,10.1964706 Z" id="Path"></path>
                    <path d="M17.3435294,10.0058824 C17.3435294,10.0058824 17.4388235,9.56117647 17.4388235,8.89411765 C17.4388235,8.54470588 17.3752941,8.16352941 17.28,7.75058824 C17.1847059,7.33764706 16.9941176,6.89294118 16.74,6.48 C16.4858824,6.03529412 16.1682353,5.68588235 15.8188235,5.4 C15.7235294,5.33647059 15.66,5.24117647 15.5647059,5.17764706 C15.4694118,5.11411765 15.4058824,5.05058824 15.3105882,4.98705882 C15.1517647,4.86 14.9929412,4.76470588 14.8341176,4.66941176 C14.6752941,4.57411765 14.5482353,4.47882353 14.3894118,4.41529412 C14.2623529,4.35176471 14.1352941,4.28823529 14.04,4.25647059 C13.8494118,4.16117647 13.7223529,4.12941176 13.7223529,4.12941176 C13.7223529,4.12941176 13.7223529,4.25647059 13.7541176,4.44705882 C13.7858824,4.63764706 13.8494118,4.92352941 13.9129412,5.27294118 C13.9764706,5.62235294 14.1035294,6.00352941 14.2305882,6.38470588 C14.2623529,6.48 14.2941176,6.57529412 14.3576471,6.67058824 C14.3894118,6.76588235 14.4529412,6.86117647 14.4847059,6.98823529 C14.58,7.17882353 14.6752941,7.40117647 14.8023529,7.59176471 L17.3435294,10.0058824 Z" id="Path"></path>
                    <path d="M20.7741176,15.1835294 C20.7741176,15.1835294 20.4564706,15.1517647 20.0435294,15.0247059 C19.8211765,14.9611765 19.5988235,14.8658824 19.3447059,14.7388235 C19.0905882,14.6117647 18.8364706,14.4847059 18.6141176,14.2941176 C18.3917647,14.1035294 18.1694118,13.9129412 18.0105882,13.6905882 C17.9152941,13.5952941 17.8517647,13.5 17.7882353,13.3729412 C17.7247059,13.2776471 17.6611765,13.1823529 17.5976471,13.0870588 C17.3752941,12.7376471 17.28,12.4517647 17.28,12.4517647 C17.28,12.4517647 17.5976471,12.42 18.0105882,12.5152941 C18.4552941,12.5788235 18.9952941,12.7694118 19.5035294,13.1505882 L20.7741176,15.1835294 Z" id="Path"></path>
                    <path d="M21.0282353,15.0564706 C21.0282353,15.0564706 21.2505882,14.6435294 21.3776471,13.9764706 C21.4094118,13.8176471 21.4411765,13.6270588 21.4729412,13.4364706 C21.5047059,13.2458824 21.5047059,13.0552941 21.5047059,12.8329412 C21.5047059,12.6105882 21.5047059,12.3882353 21.4729412,12.1658824 C21.4411765,11.9435294 21.3776471,11.6894118 21.3141176,11.4670588 C21.2505882,11.2447059 21.1552941,10.9905882 21.06,10.8 C20.9647059,10.5776471 20.8376471,10.3870588 20.7105882,10.1964706 C20.5835294,10.0058824 20.4564706,9.84705882 20.3294118,9.65647059 C20.2023529,9.49764706 20.0752941,9.37058824 19.9164706,9.24352941 C19.6623529,8.98941176 19.44,8.79882353 19.2494118,8.67176471 C19.0905882,8.54470588 18.9635294,8.48117647 18.9635294,8.48117647 C18.9635294,8.48117647 18.9317647,8.60823529 18.9317647,8.79882353 C18.9317647,8.89411765 18.9,9.02117647 18.9,9.14823529 C18.9,9.27529412 18.8682353,9.43411765 18.8682353,9.62470588 C18.8682353,9.97411765 18.8682353,10.3552941 18.9317647,10.7682353 C18.9635294,11.1811765 19.0588235,11.6258824 19.1858824,12.0705882 L21.0282353,15.0564706 Z" id="Path"></path>
                    <path d="M23.0611765,20.9329412 C23.0611765,20.9329412 22.7752941,20.8058824 22.3941176,20.5835294 C22.2035294,20.4564706 21.9811765,20.3294118 21.7905882,20.1388235 C21.6,19.9482353 21.3776471,19.7576471 21.1870588,19.5352941 C21.0917647,19.4082353 21.0282353,19.2811765 20.9647059,19.1858824 C20.9011765,19.0588235 20.8376471,18.9317647 20.7741176,18.8364706 C20.6788235,18.6141176 20.5835294,18.36 20.5517647,18.1694118 C20.4882353,17.9788235 20.4564706,17.7882353 20.4247059,17.6611765 C20.3929412,17.5341176 20.3929412,17.4705882 20.3929412,17.4705882 C20.3929412,17.4705882 20.7105882,17.5341176 21.0917647,17.6929412 C21.3141176,17.7882353 21.5047059,17.9152941 21.7270588,18.0741176 C21.9494118,18.2329412 22.1717647,18.4235294 22.3623529,18.6776471 L23.0611765,20.9329412 Z" id="Path"></path>
                    <path d="M23.3152941,20.8694118 C23.3152941,20.8694118 23.3470588,20.8376471 23.3788235,20.8058824 C23.4105882,20.7741176 23.4741176,20.7105882 23.5058824,20.6152941 C23.6329412,20.4564706 23.76,20.2341176 23.9188235,19.9164706 C24.0776471,19.6305882 24.2364706,19.2494118 24.3317647,18.8364706 C24.3952941,18.6141176 24.4270588,18.4235294 24.4588235,18.1694118 C24.4588235,18.0423529 24.4905882,17.9470588 24.4905882,17.82 C24.4905882,17.6929412 24.4905882,17.5658824 24.4905882,17.4705882 C24.4588235,16.4858824 24.0776471,15.5647059 23.6964706,14.9611765 C23.5058824,14.6435294 23.3152941,14.3894118 23.1882353,14.2305882 C23.1247059,14.1352941 23.0611765,14.0717647 23.0294118,14.04 C22.9976471,14.0082353 22.9658824,13.9764706 22.9658824,13.9764706 C22.9658824,13.9764706 22.9658824,14.0082353 22.9341176,14.04 C22.9023529,14.1035294 22.8705882,14.1670588 22.8388235,14.2623529 C22.7752941,14.4529412 22.68,14.7388235 22.5847059,15.0564706 C22.4258824,15.7235294 22.2352941,16.5811765 22.2670588,17.5023529 L23.3152941,20.8694118 Z" id="Path"></path>
                    <path d="M23.8235294,27.0635294 C23.8235294,27.0635294 23.5694118,26.8729412 23.2517647,26.5552941 C23.0929412,26.3964706 22.9341176,26.2058824 22.7752941,25.9835294 C22.6164706,25.7611765 22.4576471,25.5070588 22.3623529,25.2529412 C22.14,24.7129412 22.0764706,24.1729412 22.0764706,23.7282353 C22.0764706,23.5058824 22.0764706,23.3470588 22.1082353,23.22 C22.1082353,23.0929412 22.14,23.0294118 22.14,23.0294118 C22.14,23.0294118 22.4258824,23.1564706 22.7752941,23.4423529 C22.9341176,23.5694118 23.1247059,23.76 23.3152941,23.9823529 C23.4105882,24.0776471 23.4741176,24.2047059 23.5694118,24.3317647 C23.6329412,24.4588235 23.7282353,24.5858824 23.7917647,24.7447059 L23.8235294,27.0635294 Z" id="Path"></path>
                    <path d="M24.1094118,27.0635294 C24.1094118,27.0635294 24.4905882,26.8094118 24.9352941,26.3011765 C25.1576471,26.0470588 25.4117647,25.7294118 25.6023529,25.3482353 C25.6976471,25.1576471 25.7929412,24.9670588 25.8882353,24.7447059 C25.9835294,24.5223529 26.0470588,24.3 26.1105882,24.0458824 C26.1741176,23.7917647 26.1741176,23.5694118 26.2058824,23.3152941 C26.2058824,23.0929412 26.2376471,22.8388235 26.2058824,22.6164706 C26.1741176,22.1717647 26.0788235,21.7588235 25.9835294,21.4094118 C25.7611765,20.7105882 25.5388235,20.2658824 25.5388235,20.2658824 C25.5388235,20.2658824 25.2211765,20.6470588 24.9035294,21.2188235 C24.8082353,21.3776471 24.7447059,21.5364706 24.6494118,21.6952941 C24.5541176,21.8541176 24.4588235,22.0447059 24.3952941,22.2352941 C24.3,22.4258824 24.2364706,22.6164706 24.1729412,22.8388235 C24.1411765,22.9341176 24.1094118,23.0611765 24.0776471,23.1564706 C24.0458824,23.2517647 24.0141176,23.3788235 23.9823529,23.5058824 L24.1094118,27.0635294 Z" id="Path"></path>
                    <path d="M0.254117647,55.4929412 C0.222352941,55.4929412 0.158823529,55.4929412 0.127058824,55.4611765 C-5.47117907e-13,55.3976471 -0.0317647059,55.2388235 0.0317647059,55.1117647 C1.33411765,52.92 3.39882353,51.3635294 6.03529412,50.6011765 C16.4541176,47.5835294 23.6964706,37.8952941 23.6964706,27.0635294 C23.6964706,15.6282353 15.5964706,5.55882353 4.44705882,3.11294118 C4.32,3.08117647 4.22470588,2.95411765 4.25647059,2.82705882 C4.28823529,2.7 4.41529412,2.60470588 4.54235294,2.63647059 C10.0376471,3.84352941 15.0247059,6.92470588 18.5823529,11.2764706 C22.2035294,15.7235294 24.2047059,21.3141176 24.2047059,27.0635294 C24.2047059,38.1176471 16.8035294,48.0282353 6.16235294,51.1094118 C4.41529412,51.6176471 2.00117647,52.7611765 0.444705882,55.3976471 C0.412941176,55.4611765 0.349411765,55.4929412 0.254117647,55.4929412 Z" id="Path"></path>
                </g>
            </g>
            <rect id="Rectangle" fill="#D0D2D3" x="9.37616861" y="28.1117647" width="34.9729412" height="1"></rect>
            <g id="Group-6" transform="translate(9.503227, 22.743529)" fill="#FFFFFF">
                <polygon id="Path" points="3.11294118 4.00235294 3.11294118 1.42941176 2.00117647 3.11294118 1.96941176 3.11294118 0.857647059 1.42941176 0.857647059 4.00235294 4.53859172e-13 4.00235294 4.53859172e-13 0.0317647059 0.952941176 0.0317647059 2.00117647 1.71529412 3.04941176 0.0317647059 4.00235294 0.0317647059 4.00235294 4.00235294"></polygon>
                <path d="M9.05294118,4.00235294 L8.70352941,3.11294118 L7.02,3.11294118 L6.67058824,4.00235294 L5.78117647,4.00235294 L7.46470588,4.54303262e-13 L8.25882353,4.54303262e-13 L9.94235294,4.00235294 L9.05294118,4.00235294 Z M7.84588235,1.04823529 L7.30588235,2.31882353 L8.35411765,2.31882353 L7.84588235,1.04823529 Z" id="Shape"></path>
                <path d="M13.2141176,4.06588235 C12.6105882,4.06588235 12.0070588,3.84352941 11.5305882,3.43058824 L12.0388235,2.82705882 C12.3882353,3.11294118 12.7694118,3.30352941 13.2141176,3.30352941 C13.5635294,3.30352941 13.7858824,3.17647059 13.7858824,2.92235294 L13.7858824,2.92235294 C13.7858824,2.7 13.6588235,2.57294118 12.9917647,2.41411765 C12.1976471,2.22352941 11.6894118,2.00117647 11.6894118,1.20705882 L11.6894118,1.20705882 C11.6894118,0.476470588 12.2611765,-2.97539771e-14 13.0870588,-2.97539771e-14 C13.6588235,-2.97539771e-14 14.1670588,0.190588235 14.5482353,0.508235294 L14.1035294,1.17529412 C13.7541176,0.921176471 13.4047059,0.794117647 13.0870588,0.794117647 C12.7694118,0.794117647 12.5788235,0.952941176 12.5788235,1.14352941 L12.5788235,1.14352941 C12.5788235,1.39764706 12.7376471,1.49294118 13.4364706,1.65176471 C14.2305882,1.87411765 14.7070588,2.16 14.7070588,2.82705882 L14.7070588,2.82705882 C14.6752941,3.62117647 14.0717647,4.06588235 13.2141176,4.06588235 Z" id="Path"></path>
                <polygon id="Path" points="18.4235294 0.825882353 18.4235294 4.00235294 17.5658824 4.00235294 17.5658824 0.825882353 16.3588235 0.825882353 16.3588235 0.0317647059 19.6305882 0.0317647059 19.6305882 0.825882353"></polygon>
                <polygon id="Path" points="21.4411765 4.00235294 21.4411765 0.0317647059 24.4270588 0.0317647059 24.4270588 0.794117647 22.2988235 0.794117647 22.2988235 1.58823529 24.1729412 1.58823529 24.1729412 2.35058824 22.2988235 2.35058824 22.2988235 3.17647059 24.4588235 3.17647059 24.4588235 3.93882353 21.4411765 3.93882353"></polygon>
                <path d="M28.9376471,4.00235294 L28.08,2.73176471 L27.3811765,2.73176471 L27.3811765,4.00235294 L26.5235294,4.00235294 L26.5235294,0.0317647059 L28.3341176,0.0317647059 C29.2552941,0.0317647059 29.8270588,0.54 29.8270588,1.33411765 L29.8270588,1.33411765 C29.8270588,1.96941176 29.4776471,2.38235294 28.9694118,2.57294118 L29.9223529,4.00235294 L28.9376471,4.00235294 Z M28.9376471,1.39764706 C28.9376471,1.01647059 28.6835294,0.825882353 28.2388235,0.825882353 L27.3811765,0.825882353 L27.3811765,1.96941176 L28.2705882,1.96941176 C28.7152941,1.96941176 28.9376471,1.74705882 28.9376471,1.39764706 L28.9376471,1.39764706 Z" id="Shape"></path>
                <path d="M33.2258824,4.06588235 C32.6223529,4.06588235 32.0188235,3.84352941 31.5423529,3.43058824 L32.0505882,2.82705882 C32.4,3.11294118 32.7811765,3.30352941 33.2258824,3.30352941 C33.5752941,3.30352941 33.7976471,3.17647059 33.7976471,2.92235294 L33.7976471,2.92235294 C33.7976471,2.7 33.6705882,2.57294118 33.0035294,2.41411765 C32.2094118,2.22352941 31.7011765,2.00117647 31.7011765,1.20705882 L31.7011765,1.20705882 C31.7011765,0.476470588 32.2729412,-2.97539771e-14 33.0988235,-2.97539771e-14 C33.6705882,-2.97539771e-14 34.1788235,0.190588235 34.56,0.508235294 L34.1152941,1.17529412 C33.7658824,0.921176471 33.4164706,0.794117647 33.0988235,0.794117647 C32.7494118,0.794117647 32.5905882,0.952941176 32.5905882,1.14352941 L32.5905882,1.14352941 C32.5905882,1.39764706 32.7494118,1.49294118 33.4482353,1.65176471 C34.2423529,1.87411765 34.7188235,2.16 34.7188235,2.82705882 L34.7188235,2.82705882 C34.6870588,3.62117647 34.0835294,4.06588235 33.2258824,4.06588235 Z" id="Path"></path>
            </g>
            <g id="Group-7" transform="translate(9.503227, 29.604706)" fill="#FFFFFF">
                <path d="M1.52470588,2.85882353 L0.857647059,2.85882353 L0.857647059,4.03411765 L-1.20237154e-12,4.03411765 L-1.20237154e-12,0.0635294118 L1.62,0.0635294118 C2.57294118,0.0635294118 3.14470588,0.635294118 3.14470588,1.42941176 L3.14470588,1.42941176 C3.14470588,2.38235294 2.41411765,2.85882353 1.52470588,2.85882353 Z M2.25529412,1.46117647 C2.25529412,1.08 1.96941176,0.857647059 1.55647059,0.857647059 L0.889411765,0.857647059 L0.889411765,2.06470588 L1.58823529,2.06470588 C2.00117647,2.06470588 2.25529412,1.81058824 2.25529412,1.46117647 L2.25529412,1.46117647 Z" id="Shape"></path>
                <path d="M7.02,4.03411765 L6.16235294,2.76352941 L5.46352941,2.76352941 L5.46352941,4.03411765 L4.60588235,4.03411765 L4.60588235,0.0635294118 L6.41647059,0.0635294118 C7.33764706,0.0635294118 7.90941176,0.571764706 7.90941176,1.36588235 L7.90941176,1.36588235 C7.90941176,2.00117647 7.56,2.41411765 7.05176471,2.60470588 L8.00470588,4.03411765 L7.02,4.03411765 Z M7.02,1.42941176 C7.02,1.04823529 6.76588235,0.857647059 6.32117647,0.857647059 L5.46352941,0.857647059 L5.46352941,2.00117647 L6.35294118,2.00117647 C6.76588235,2.00117647 7.02,1.77882353 7.02,1.42941176 L7.02,1.42941176 Z" id="Shape"></path>
                <path d="M11.4035294,4.09764706 C10.1647059,4.09764706 9.30705882,3.17647059 9.30705882,2.06470588 L9.30705882,2.06470588 C9.30705882,0.952941176 10.1964706,-1.1812773e-12 11.4352941,-1.1812773e-12 C12.6741176,-1.1812773e-12 13.5317647,0.921176471 13.5317647,2.03294118 L13.5317647,2.03294118 C13.5,3.17647059 12.6105882,4.09764706 11.4035294,4.09764706 Z M12.6105882,2.06470588 C12.6105882,1.39764706 12.1023529,0.825882353 11.4035294,0.825882353 C10.7047059,0.825882353 10.2282353,1.36588235 10.2282353,2.06470588 L10.2282353,2.06470588 C10.2282353,2.73176471 10.7364706,3.30352941 11.4352941,3.30352941 C12.1023529,3.30352941 12.6105882,2.76352941 12.6105882,2.06470588 L12.6105882,2.06470588 Z" id="Shape"></path>
                <path d="M16.9941176,4.09764706 C15.7552941,4.09764706 14.8976471,3.24 14.8976471,2.06470588 L14.8976471,2.06470588 C14.8976471,0.952941176 15.7870588,-1.1812773e-12 16.9623529,-1.1812773e-12 C17.6611765,-1.1812773e-12 18.1058824,0.190588235 18.5188235,0.54 L17.9788235,1.20705882 C17.6611765,0.952941176 17.4070588,0.794117647 16.9305882,0.794117647 C16.2952941,0.794117647 15.7870588,1.36588235 15.7870588,2.03294118 L15.7870588,2.03294118 C15.7870588,2.76352941 16.2952941,3.30352941 16.9941176,3.30352941 C17.3117647,3.30352941 17.5976471,3.20823529 17.82,3.08117647 L17.82,2.50941176 L16.9305882,2.50941176 L16.9305882,1.74705882 L18.6458824,1.74705882 L18.6458824,3.46235294 C18.2964706,3.84352941 17.7247059,4.09764706 16.9941176,4.09764706 Z" id="Path"></path>
                <path d="M22.8070588,4.03411765 L21.9494118,2.76352941 L21.2505882,2.76352941 L21.2505882,4.03411765 L20.3929412,4.03411765 L20.3929412,0.0635294118 L22.2035294,0.0635294118 C23.1247059,0.0635294118 23.6964706,0.571764706 23.6964706,1.36588235 L23.6964706,1.36588235 C23.6964706,2.00117647 23.3470588,2.41411765 22.8388235,2.60470588 L23.7917647,4.03411765 L22.8070588,4.03411765 Z M22.8388235,1.42941176 C22.8388235,1.04823529 22.5847059,0.857647059 22.14,0.857647059 L21.2823529,0.857647059 L21.2823529,2.00117647 L22.1717647,2.00117647 C22.5847059,2.00117647 22.8388235,1.77882353 22.8388235,1.42941176 L22.8388235,1.42941176 Z" id="Shape"></path>
                <path d="M28.3658824,4.03411765 L28.0164706,3.14470588 L26.3329412,3.14470588 L25.9835294,4.03411765 L25.0941176,4.03411765 L26.8094118,0.0317647059 L27.6035294,0.0317647059 L29.2870588,4.03411765 L28.3658824,4.03411765 Z M27.1588235,1.11176471 L26.6188235,2.38235294 L27.6670588,2.38235294 L27.1588235,1.11176471 Z" id="Shape"></path>
                <polygon id="Path" points="33.7976471 4.03411765 33.7976471 1.46117647 32.6858824 3.14470588 32.6541176 3.14470588 31.5423529 1.46117647 31.5423529 4.03411765 30.6847059 4.03411765 30.6847059 0.0635294118 31.6376471 0.0635294118 32.6858824 1.74705882 33.7341176 0.0635294118 34.6870588 0.0635294118 34.6870588 4.03411765"></polygon>
            </g>
            <g id="Group" transform="translate(14.585580, 36.783529)" fill="#FFFFFF">
                <polygon id="Path" points="1.90588235 -7.65387753e-13 2.35058824 1.36588235 3.81176471 1.36588235 2.63647059 2.25529412 3.08117647 3.68470588 1.90588235 2.82705882 0.730588235 3.68470588 1.17529412 2.25529412 8.57092175e-14 1.36588235 1.46117647 1.36588235"></polygon>
                <polygon id="Path" points="7.08352941 -7.65387753e-13 7.52823529 1.36588235 8.98941176 1.36588235 7.81411765 2.25529412 8.25882353 3.68470588 7.08352941 2.82705882 5.87647059 3.68470588 6.35294118 2.25529412 5.14588235 1.36588235 6.60705882 1.36588235"></polygon>
                <polygon id="Path" points="12.2294118 -7.65387753e-13 12.7058824 1.36588235 14.1670588 1.36588235 12.9917647 2.25529412 13.4364706 3.68470588 12.2294118 2.82705882 11.0541176 3.68470588 11.4988235 2.25529412 10.3235294 1.36588235 11.7847059 1.36588235"></polygon>
                <polygon id="Path" points="17.4070588 -7.65387753e-13 17.8517647 1.36588235 19.3447059 1.36588235 18.1376471 2.25529412 18.5823529 3.68470588 17.4070588 2.82705882 16.2317647 3.68470588 16.6764706 2.25529412 15.5011765 1.36588235 16.9623529 1.36588235"></polygon>
                <polygon id="Path" points="22.5847059 -7.65387753e-13 23.0294118 1.36588235 24.4905882 1.36588235 23.3152941 2.25529412 23.76 3.68470588 22.5847059 2.82705882 21.4094118 3.68470588 21.8541176 2.25529412 20.6470588 1.36588235 22.14 1.36588235"></polygon>
            </g>
            <g id="Group-5" transform="translate(20.334992, 11.181176)" fill="#FFFFFF">
                <path d="M6.35294118,6.19411765 C8.76705882,6.19411765 10.8,6.32117647 11.4670588,6.48 L12.7376471,1.60138569e-12 C12.7376471,1.60138569e-12 9.84705882,2.54117647 9.05294118,2.54117647 C8.22705882,2.54117647 6.35294118,0.762352941 6.35294118,0.762352941 C6.35294118,0.762352941 4.54235294,2.54117647 3.78,2.54117647 C2.98588235,2.54117647 3.47277762e-13,1.60138569e-12 3.47277762e-13,1.60138569e-12 L1.27058824,6.48 C1.90588235,6.32117647 3.93882353,6.19411765 6.35294118,6.19411765 Z" id="Path"></path>
                <path d="M6.35294118,6.98823529 C3.39882353,6.98823529 0.984705882,7.17882353 0.984705882,7.36941176 L11.6894118,7.36941176 C11.6894118,7.14705882 9.30705882,6.98823529 6.35294118,6.98823529 Z" id="Path"></path>
            </g>
        </g>
    </g>
</svg>